<?xml version="1.0" encoding="UTF-8"?>
<svg width="441px" height="114px" viewBox="0 0 441 114" version="1.1" xmlns="http://www.w3.org/2000/svg" xmlns:xlink="http://www.w3.org/1999/xlink">
    <title>dc-am-paris-23-logo-1 (1)</title>
    <g id="Page-1" stroke="none" stroke-width="1" fill="none" fill-rule="evenodd">
        <g id="Slide-16:9" transform="translate(-22, -308)" fill-rule="nonzero">
            <g id="dc-am-paris-23-logo-1-(1)" transform="translate(22, 308)">
                <path d="M280,86 C280,88.2095238 278.209524,90 276,90 C273.790476,90 272,88.2095238 272,86 C272,83.7904762 273.790476,82 276,82 C278.209524,82 280,83.7904762 280,86" id="Path" fill="#E55746"></path>
                <g id="Group">
                    <g fill="#00B5E4">
                        <path d="M32.4757232,32.5063291 L8.50465057,32.5063291 L3.23628296,44.2405063 L0,44.2405063 L19.0413858,2.50632911 L22.0518816,2.50632911 L41.0932673,44.2405063 L37.8569844,44.2405063 L32.4757232,32.5063291 Z M31.3467873,29.9620253 L20.4713713,5.88607595 L9.67121768,29.9620253 L31.3467873,29.9620253 Z" id="Shape"></path>
                        <path d="M71.3487499,16.2911392 C73.6066217,18.5696203 74.6979264,21.7974684 74.6979264,26.0506329 L74.6979264,44.2405063 L71.7626931,44.2405063 L71.7626931,26.278481 C71.7626931,22.7848101 70.8971755,20.1265823 69.1285093,18.3037975 C67.359843,16.4810127 64.9138152,15.5696203 61.7904258,15.5696203 C58.1778309,15.5696203 55.3178599,16.6708861 53.2105128,18.835443 C51.140797,21.0379747 50.0871235,23.9620253 50.0871235,27.6455696 L50.0871235,44.2025316 L47.1518901,44.2025316 L47.1518901,13.0632911 L49.9742299,13.0632911 L49.9742299,19.7848101 C51.0279034,17.5822785 52.6084137,15.8734177 54.7157607,14.6582278 C56.8231078,13.443038 59.3067668,12.7974684 62.204369,12.7974684 C66.0427511,12.9113924 69.0908781,14.0506329 71.3487499,16.2911392 Z" id="Path"></path>
                        <path d="M113.79674,0.0379746835 L113.79674,44.278481 L110.899138,44.278481 L110.899138,36.9113924 C109.69494,39.3417722 107.963905,41.2025316 105.743664,42.5316456 C103.523424,43.8607595 101.039764,44.5063291 98.2550559,44.5063291 C95.3950849,44.5063291 92.7985323,43.8227848 90.4653981,42.4936709 C88.1322638,41.1265823 86.3259664,39.2658228 85.0088745,36.8734177 C83.6917826,34.4810127 83.014421,31.7848101 83.014421,28.7088608 C83.014421,25.6329114 83.6541514,22.8987342 85.0088745,20.5063291 C86.3259664,18.1139241 88.1322638,16.2151899 90.4653981,14.8860759 C92.7985323,13.556962 95.3950849,12.8734177 98.2550559,12.8734177 C101.002133,12.8734177 103.485792,13.5189873 105.668402,14.8481013 C107.851011,16.1772152 109.582046,18 110.823876,20.3164557 L110.823876,0 L113.79674,0 L113.79674,0.0379746835 Z M104.802884,40.1392405 C106.684444,39.0379747 108.152061,37.4810127 109.243365,35.5063291 C110.33467,33.5316456 110.861507,31.2531646 110.861507,28.7088608 C110.861507,26.164557 110.33467,23.8860759 109.243365,21.9113924 C108.152061,19.9367089 106.684444,18.3797468 104.802884,17.278481 C102.921324,16.1772152 100.813977,15.6075949 98.4432119,15.6075949 C96.0724465,15.6075949 93.9650994,16.1772152 92.0835396,17.278481 C90.2019797,18.3797468 88.734363,19.9367089 87.6430583,21.9113924 C86.5517536,23.8860759 86.0249168,26.164557 86.0249168,28.7088608 C86.0249168,31.2531646 86.5517536,33.5316456 87.6430583,35.5063291 C88.734363,37.4810127 90.2019797,39.0379747 92.0835396,40.1392405 C93.9650994,41.2405063 96.0724465,41.8101266 98.4432119,41.8101266 C100.813977,41.8101266 102.921324,41.278481 104.802884,40.1392405 Z" id="Shape"></path>
                        <path d="M133.063913,14.7341772 C135.058367,13.5189873 137.504395,12.9113924 140.401997,12.9113924 L140.401997,15.835443 L139.687004,15.7594937 C136.262565,15.7594937 133.59075,16.8607595 131.633928,19.0253165 C129.714737,21.1898734 128.736326,24.1898734 128.736326,28.0632911 L128.736326,44.278481 L125.801092,44.278481 L125.801092,13.1392405 L128.623432,13.1392405 L128.623432,19.9367089 C129.601843,17.6582278 131.06946,15.9493671 133.063913,14.7341772 Z" id="Path"></path>
                        <path d="M152.782661,42.4556962 C150.449526,41.0886076 148.605598,39.2278481 147.250875,36.835443 C145.896152,34.443038 145.256421,31.7088608 145.256421,28.7088608 C145.256421,25.6708861 145.933783,22.9746835 147.250875,20.5822785 C148.567967,18.1898734 150.411895,16.2911392 152.782661,14.9620253 C155.115795,13.5949367 157.749979,12.9493671 160.685212,12.9493671 C163.582814,12.9493671 166.216998,13.6329114 168.587763,14.9620253 C170.920898,16.3291139 172.764826,18.1898734 174.119549,20.5822785 C175.474273,22.9746835 176.114003,25.7088608 176.114003,28.7088608 C176.114003,31.7088608 175.436641,34.443038 174.119549,36.835443 C172.764826,39.2278481 170.920898,41.1265823 168.587763,42.4556962 C166.254629,43.8227848 163.620445,44.4683544 160.685212,44.4683544 C157.749979,44.5063291 155.115795,43.8227848 152.782661,42.4556962 Z M167.007253,40.1392405 C168.888813,39.0379747 170.35643,37.4810127 171.447734,35.5063291 C172.539039,33.5316456 173.065876,31.2531646 173.065876,28.7088608 C173.065876,26.164557 172.539039,23.8860759 171.447734,21.9113924 C170.35643,19.9367089 168.888813,18.3797468 167.007253,17.278481 C165.125693,16.1772152 163.018346,15.6075949 160.647581,15.6075949 C158.276815,15.6075949 156.169468,16.1772152 154.287909,17.278481 C152.406349,18.3797468 150.938732,19.9367089 149.847427,21.9113924 C148.756123,23.8860759 148.229286,26.164557 148.229286,28.7088608 C148.229286,31.2531646 148.756123,33.5316456 149.847427,35.5063291 C150.938732,37.4810127 152.406349,39.0379747 154.287909,40.1392405 C156.169468,41.2405063 158.276815,41.8101266 160.647581,41.8101266 C163.018346,41.8101266 165.125693,41.278481 167.007253,40.1392405 Z" id="Shape"></path>
                        <path d="M184.543391,4.89873418 C184.054186,4.44303797 183.828398,3.87341772 183.828398,3.18987342 C183.828398,2.50632911 184.054186,1.93670886 184.543391,1.44303797 C185.032597,0.987341772 185.597065,0.721518987 186.274426,0.721518987 C186.951788,0.721518987 187.516256,0.949367089 188.005461,1.40506329 C188.494667,1.86075949 188.720454,2.43037975 188.720454,3.11392405 C188.720454,3.79746835 188.494667,4.36708861 188.005461,4.86075949 C187.516256,5.35443038 186.951788,5.58227848 186.274426,5.58227848 C185.559433,5.58227848 184.994965,5.35443038 184.543391,4.89873418 Z M184.769178,13.1392405 L187.704412,13.1392405 L187.704412,44.278481 L184.769178,44.278481 L184.769178,13.1392405 Z" id="Shape"></path>
                        <path d="M227.104275,0.0379746835 L227.104275,44.278481 L224.206673,44.278481 L224.206673,36.9113924 C223.002475,39.3417722 221.27144,41.2025316 219.051199,42.5316456 C216.830958,43.8607595 214.347299,44.5063291 211.562591,44.5063291 C208.70262,44.5063291 206.106067,43.8227848 203.772933,42.4936709 C201.439799,41.1265823 199.633501,39.2658228 198.316409,36.8734177 C196.999317,34.4810127 196.321956,31.7848101 196.321956,28.7088608 C196.321956,25.6329114 196.961686,22.8987342 198.316409,20.5063291 C199.633501,18.1139241 201.439799,16.2151899 203.772933,14.8860759 C206.106067,13.556962 208.70262,12.8734177 211.562591,12.8734177 C214.309668,12.8734177 216.793327,13.5189873 218.975937,14.8481013 C221.158546,16.1772152 222.889581,18 224.131411,20.3164557 L224.131411,0 L227.104275,0 L227.104275,0.0379746835 Z M218.110419,40.1392405 C219.991979,39.0379747 221.459596,37.4810127 222.5509,35.5063291 C223.642205,33.5316456 224.169042,31.2531646 224.169042,28.7088608 C224.169042,26.164557 223.642205,23.8860759 222.5509,21.9113924 C221.459596,19.9367089 219.991979,18.3797468 218.110419,17.278481 C216.228859,16.1772152 214.121512,15.6075949 211.750747,15.6075949 C209.379981,15.6075949 207.272634,16.1772152 205.391074,17.278481 C203.509514,18.3797468 202.041898,19.9367089 200.950593,21.9113924 C199.859288,23.8860759 199.332452,26.164557 199.332452,28.7088608 C199.332452,31.2531646 199.859288,33.5316456 200.950593,35.5063291 C202.041898,37.4810127 203.509514,39.0379747 205.391074,40.1392405 C207.272634,41.2405063 209.379981,41.8101266 211.750747,41.8101266 C214.121512,41.8101266 216.228859,41.278481 218.110419,40.1392405 Z" id="Shape"></path>
                        <polygon id="Path" points="279.185852 44.278481 279.11059 8.58227848 261.800239 38.7341772 260.332622 38.7341772 243.022272 8.69620253 243.022272 44.278481 240.087038 44.278481 240.087038 2.5443038 242.608328 2.5443038 261.085246 34.7848101 279.562164 2.5443038 282.045823 2.5443038 282.121085 44.278481"></polygon>
                        <path d="M314.33339,15.835443 C316.365475,17.8101266 317.419148,20.6962025 317.419148,24.4936709 L317.419148,44.2405063 L314.596809,44.2405063 L314.596809,38.6962025 C313.618397,40.5189873 312.188412,41.9620253 310.269221,42.9493671 C308.387661,43.9746835 306.129789,44.4683544 303.457974,44.4683544 C300.033535,44.4683544 297.324089,43.6708861 295.329636,42.0379747 C293.335182,40.4050633 292.356771,38.278481 292.356771,35.5822785 C292.356771,33 293.25992,30.9113924 295.103848,29.278481 C296.947777,27.6835443 299.845379,26.8481013 303.871917,26.8481013 L314.446284,26.8481013 L314.446284,24.3417722 C314.446284,21.4556962 313.656029,19.2531646 312.11315,17.7341772 C310.570271,16.2151899 308.274767,15.4556962 305.301903,15.4556962 C303.269818,15.4556962 301.312996,15.7974684 299.431436,16.5189873 C297.549876,17.2405063 295.969366,18.1898734 294.689905,19.3670886 L293.222289,17.2405063 C294.765168,15.835443 296.609096,14.7721519 298.791706,13.9746835 C300.974315,13.2151899 303.232187,12.7974684 305.602952,12.7974684 C309.328441,12.9113924 312.263674,13.8987342 314.33339,15.835443 Z M310.382115,40.2531646 C312.188412,39.0759494 313.505504,37.3291139 314.446284,35.0506329 L314.446284,29.2025316 L303.94718,29.2025316 C300.899053,29.2025316 298.716443,29.7721519 297.36172,30.8734177 C296.006997,31.9746835 295.329636,33.5316456 295.329636,35.4683544 C295.329636,37.4810127 296.08226,39.1139241 297.587507,40.2531646 C299.092755,41.4303797 301.200102,42 303.909549,42 C306.430839,42.0379747 308.613448,41.4683544 310.382115,40.2531646 Z" id="Shape"></path>
                        <polygon id="Path" points="340.073129 27.6455696 332.057684 35.0506329 332.057684 44.278481 329.122451 44.278481 329.122451 0.0379746835 332.057684 0.0379746835 332.057684 31.3291139 351.776431 13.1392405 355.539551 13.1392405 342.255739 25.7088608 356.856643 44.2405063 353.206417 44.2405063"></polygon>
                        <path d="M389.407629,29.4303797 L362.877635,29.4303797 C362.952897,31.8607595 363.554996,34.0253165 364.721563,35.8860759 C365.850499,37.7848101 367.393378,39.2278481 369.350201,40.2531646 C371.307023,41.278481 373.489632,41.8101266 375.93566,41.8101266 C377.930113,41.8101266 379.811673,41.4303797 381.505077,40.7088608 C383.236112,39.9873418 384.628467,38.8860759 385.795034,37.443038 L387.526069,39.4177215 C386.171346,41.0506329 384.515573,42.3037975 382.483488,43.1772152 C380.451404,44.0506329 378.268794,44.5063291 375.898029,44.5063291 C372.812271,44.5063291 370.102824,43.8227848 367.694428,42.4936709 C365.286031,41.1265823 363.404471,39.2658228 362.049748,36.8734177 C360.695025,34.4810127 360.017664,31.7848101 360.017664,28.7088608 C360.017664,25.6708861 360.657394,22.9746835 361.936855,20.5822785 C363.216315,18.1898734 364.984982,16.2911392 367.242853,14.9620253 C369.500725,13.5949367 372.022016,12.9493671 374.806724,12.9493671 C377.591433,12.9493671 380.112723,13.5949367 382.332964,14.9620253 C384.553204,16.2911392 386.32187,18.1518987 387.601331,20.5443038 C388.880792,22.9367089 389.520522,25.6329114 389.520522,28.6708861 L389.407629,29.4303797 Z M368.898626,16.9746835 C367.167591,17.9620253 365.775237,19.3291139 364.721563,21.0759494 C363.66789,22.8607595 363.065791,24.835443 362.915266,27.0759494 L386.547658,27.0759494 C386.434764,24.835443 385.832665,22.8607595 384.778991,21.1139241 C383.725318,19.3670886 382.332964,18 380.601928,17.0126582 C378.870893,16.0253165 376.914071,15.5316456 374.769093,15.5316456 C372.586483,15.5316456 370.629661,16.0253165 368.898626,16.9746835 Z" id="Shape"></path>
                        <path d="M405.438519,14.7341772 C407.432972,13.5189873 409.879,12.9113924 412.776602,12.9113924 L412.776602,15.835443 L412.061609,15.7594937 C408.63717,15.7594937 405.965355,16.8607595 404.008533,19.0253165 C402.089342,21.1898734 401.110931,24.1898734 401.110931,28.0632911 L401.110931,44.278481 L398.175698,44.278481 L398.175698,13.1392405 L400.998037,13.1392405 L400.998037,19.9367089 C401.938817,17.6582278 403.406434,15.9493671 405.438519,14.7341772 Z" id="Path"></path>
                        <path d="M421.657565,43.3670886 C419.399693,42.6075949 417.668658,41.6582278 416.389197,40.5189873 L417.74392,38.1265823 C418.98575,39.1898734 420.641522,40.1012658 422.635976,40.8227848 C424.630429,41.5443038 426.700145,41.8860759 428.882755,41.8860759 C432.006144,41.8860759 434.301647,41.3544304 435.769264,40.3291139 C437.23688,39.3037975 437.989504,37.8607595 437.989504,36.0379747 C437.989504,34.7088608 437.575561,33.6835443 436.785306,32.9240506 C435.995051,32.164557 434.979008,31.5949367 433.812441,31.2531646 C432.645874,30.9113924 430.990102,30.5316456 428.920386,30.1139241 C426.474358,29.6962025 424.517536,29.2025316 423.012288,28.6708861 C421.50704,28.1392405 420.227579,27.3037975 419.173906,26.164557 C418.120232,25.0253165 417.593395,23.4303797 417.593395,21.3797468 C417.593395,18.9113924 418.609438,16.8607595 420.641522,15.2658228 C422.673607,13.6708861 425.571209,12.835443 429.296698,12.835443 C431.25352,12.835443 433.210342,13.1012658 435.129533,13.6708861 C437.048724,14.2405063 438.629235,14.9620253 439.871064,15.8734177 L438.516341,18.2658228 C437.274511,17.3544304 435.806895,16.6708861 434.188753,16.1772152 C432.570612,15.721519 430.914839,15.4556962 429.221435,15.4556962 C426.361464,15.4556962 424.178855,15.9873418 422.711238,17.0506329 C421.243621,18.1139241 420.528629,19.5189873 420.528629,21.2658228 C420.528629,22.6708861 420.942572,23.7341772 421.770458,24.5316456 C422.598345,25.3291139 423.614387,25.8987342 424.818585,26.278481 C426.022784,26.6582278 427.716187,27.0759494 429.861166,27.4936709 C432.269562,27.9113924 434.188753,28.4050633 435.694001,28.8987342 C437.199249,29.3924051 438.403447,30.1898734 439.457121,31.3291139 C440.473163,32.4303797 441,33.9873418 441,35.9240506 C441,38.5063291 439.946326,40.556962 437.801348,42.1139241 C435.694001,43.6708861 432.683505,44.4303797 428.807492,44.4303797 C426.286202,44.5063291 423.915436,44.1265823 421.657565,43.3670886 Z" id="Path"></path>
                    </g>
                    <g transform="translate(125.8387, 57.9494)" fill="#0014E6">
                        <path d="M23.2560799,14.8481013 C25.5892141,16.1772152 27.3955116,18.0379747 28.7126035,20.4683544 C30.0296954,22.8607595 30.7070569,25.5949367 30.7070569,28.6708861 C30.7070569,31.7468354 30.0673266,34.443038 28.7126035,36.835443 C27.3955116,39.2278481 25.5892141,41.0886076 23.2560799,42.4556962 C20.9229456,43.8227848 18.326393,44.4683544 15.466422,44.4683544 C12.7193447,44.4683544 10.1980544,43.7848101 7.97781381,42.4556962 C5.75757317,41.1265823 4.0265381,39.2658228 2.82233979,36.8734177 L2.82233979,44.2025316 L0,44.2025316 L0,0 L2.93523338,0 L2.93523338,20.2025316 C4.13943169,17.8860759 5.87046676,16.1012658 8.0907074,14.8101266 C10.310948,13.5189873 12.7569759,12.8734177 15.466422,12.8734177 C18.326393,12.8734177 20.9229456,13.5189873 23.2560799,14.8481013 Z M21.6379384,40.1012658 C23.5194983,39 25.0247461,37.443038 26.1160509,35.4683544 C27.2073556,33.4936709 27.7341923,31.2151899 27.7341923,28.6708861 C27.7341923,26.1265823 27.2073556,23.8481013 26.1160509,21.8734177 C25.0247461,19.8987342 23.5571294,18.3417722 21.6379384,17.2405063 C19.7563785,16.1392405 17.6114003,15.5696203 15.2406349,15.5696203 C12.8698694,15.5696203 10.7625224,16.1392405 8.88096254,17.2405063 C6.99940268,18.3417722 5.53178599,19.8987342 4.44048127,21.8734177 C3.34917655,23.8481013 2.82233979,26.1265823 2.82233979,28.6708861 C2.82233979,31.2151899 3.34917655,33.4936709 4.44048127,35.4683544 C5.53178599,37.443038 6.99940268,39 8.88096254,40.1012658 C10.7625224,41.2025316 12.8698694,41.7721519 15.2406349,41.7721519 C17.6490315,41.7721519 19.7563785,41.2405063 21.6379384,40.1012658 Z" id="Shape"></path>
                        <path d="M64.12356,13.1012658 L48.280826,48.4556962 C47.1142589,51.1898734 45.7219046,53.1265823 44.1790255,54.3037975 C42.6361464,55.443038 40.7922178,56.0506329 38.6472395,56.0506329 C37.217254,56.0506329 35.9001621,55.8227848 34.6583326,55.3291139 C33.4165031,54.835443 32.3628296,54.1518987 31.4973121,53.2405063 L32.9649287,50.9620253 C34.545439,52.5949367 36.4646301,53.3924051 38.6848707,53.3924051 C40.1901186,53.3924051 41.4695793,52.9746835 42.5232528,52.1392405 C43.5769264,51.3037975 44.5553375,49.8607595 45.4584862,47.8481013 L47.1142589,44.0886076 L33.2283471,13.1012658 L36.3517365,13.1012658 L48.6947692,40.9367089 L61.0378019,13.1012658 L64.12356,13.1012658 Z" id="Path"></path>
                    </g>
                    <path d="M389.332366,95.0126582 C384.778991,95.0126582 381.091134,91.2911392 381.091134,86.6962025 C381.091134,82.1012658 384.778991,78.3797468 389.332366,78.3797468 C393.885741,78.3797468 397.573598,82.1012658 397.573598,86.6962025 C397.573598,91.3291139 393.885741,95.0126582 389.332366,95.0126582 M389.332366,71.278481 C380.865347,71.278481 374.016469,78.1898734 374.016469,86.7341772 C374.016469,95.278481 380.865347,102.189873 389.332366,102.189873 C397.799386,102.189873 404.648264,95.278481 404.648264,86.7341772 C404.648264,78.1898734 397.799386,71.278481 389.332366,71.278481" id="Shape" fill="#0014E6"></path>
                    <path d="M276.175356,95.0126582 C271.621981,95.0126582 267.934124,91.2911392 267.934124,86.6962025 C267.934124,82.1012658 271.621981,78.3797468 276.175356,78.3797468 C280.728731,78.3797468 284.416588,82.1012658 284.416588,86.6962025 C284.416588,91.3291139 280.728731,95.0126582 276.175356,95.0126582 M276.175356,71.278481 C267.708337,71.278481 260.859459,78.1898734 260.859459,86.7341772 C260.859459,95.278481 267.708337,102.189873 276.175356,102.189873 C284.642376,102.189873 291.491254,95.278481 291.491254,86.7341772 C291.491254,78.1898734 284.642376,71.278481 276.175356,71.278481" id="Shape" fill="#0014E6"></path>
                    <path d="M221.384333,95.0506329 C216.830958,95.0506329 213.143101,91.3291139 213.143101,86.7341772 C213.143101,82.1392405 216.830958,78.4177215 221.384333,78.4177215 C225.937708,78.4177215 229.625565,82.1392405 229.625565,86.7341772 C229.625565,91.3291139 225.937708,95.0506329 221.384333,95.0506329 M236.70023,86.7341772 L236.70023,57.9493671 L229.625565,57.9493671 L229.625565,73.7088608 C227.2548,72.1898734 224.43246,71.278481 221.384333,71.278481 C212.917314,71.278481 206.068436,78.1898734 206.068436,86.7341772 C206.068436,95.278481 212.917314,102.189873 221.384333,102.189873 C229.851353,102.189873 236.70023,95.2405063 236.70023,86.7341772 Z" id="Shape" fill="#0014E6"></path>
                    <path d="M324.832494,95.0126582 C320.279119,95.0126582 316.591262,91.2911392 316.591262,86.6962025 C316.591262,82.1012658 320.279119,78.3797468 324.832494,78.3797468 C329.385869,78.3797468 333.073726,82.1012658 333.073726,86.6962025 C333.073726,91.3291139 329.385869,95.0126582 324.832494,95.0126582 M340.148392,57.9493671 L333.073726,57.9493671 L333.073726,73.7088608 C330.702961,72.1898734 327.880621,71.278481 324.832494,71.278481 C316.365475,71.278481 309.516597,78.1898734 309.516597,86.7341772 C309.516597,95.278481 316.365475,102.189873 324.832494,102.189873 C333.299514,102.189873 340.148392,95.278481 340.148392,86.7341772 L340.148392,57.9493671 Z" id="Shape" fill="#0014E6"></path>
                    <rect id="Rectangle" fill="#0014E6" x="296.910146" y="71.278481" width="7.07466507" height="30.9113924"></rect>
                    <path d="M242.156754,86.7341772 L242.156754,86.7341772 L242.156754,102.189873 L249.231419,102.189873 L249.231419,86.7341772 C249.231419,82.1392405 252.919276,78.4177215 257.472651,78.4177215 L257.472651,71.278481 C249.005632,71.278481 242.156754,78.1898734 242.156754,86.7341772" id="Path" fill="#0014E6"></path>
                    <path d="M365.587081,92.5822785 C364.081833,94.1012658 362.049748,95.0126582 359.754245,95.0126582 C355.20087,95.0126582 351.513013,91.2911392 351.513013,86.6962025 C351.513013,82.1012658 355.20087,78.3797468 359.754245,78.3797468 C362.012117,78.3797468 364.081833,79.2911392 365.587081,80.8101266 L370.59203,75.7594937 C367.807321,72.9493671 364.006571,71.2405063 359.754245,71.2405063 C351.287226,71.2405063 344.438348,78.1518987 344.438348,86.6962025 C344.438348,95.2405063 351.287226,102.151899 359.754245,102.151899 C363.968939,102.151899 367.807321,100.405063 370.59203,97.6329114 L365.587081,92.5822785 Z" id="Path" fill="#0014E6"></path>
                    <path d="M424.893848,71.278481 C416.426828,71.278481 409.57795,78.1898734 409.57795,86.7341772 L409.57795,86.7341772 L409.57795,102.189873 L416.652615,102.189873 L416.652615,86.7341772 L416.652615,86.7341772 C416.652615,82.1392405 420.340473,78.4177215 424.893848,78.4177215 C429.447222,78.4177215 433.13508,82.1392405 433.13508,86.7341772 L433.13508,102.189873 L440.209745,102.189873 L440.209745,86.7341772 C440.209745,78.1898734 433.360867,71.278481 424.893848,71.278481" id="Path" fill="#0014E6"></path>
                </g>
            </g>
        </g>
    </g>
</svg>